# xmcd
#
# Track frame offsets:
#	150
#	15286
#	31966
#	48771
#	60230
#	74728
#	92356
#	106695
#	119078
#	149382
#	162003
#	181098
#	196853
#	213071
#	225943
#	240657
#	255710
#
# Disc length: 3639 seconds
#
# Revision: 1
# Processed by: cddbd v1.4PL0 Copyright (c) Steve Scherf et al.
# Submitted via: audiograbber 1.81.03
#
DISCID=cd0e3511
DTITLE=The Jimi Hendrix Experience - Are You  Experienced?
DYEAR=1967
DGENRE=
TTITLE0=Foxy Lady
TTITLE1=Manic Depression
TTITLE2=Red House
TTITLE3=Can You See Me
TTITLE4=Love Or Confusion
TTITLE5=I Don't Live Today
TTITLE6=May This Be Love
TTITLE7=Fire
TTITLE8=Third Stone from The Sun
TTITLE9=Remember
TTITLE10=Are You Experienced?
TTITLE11=Hey Joe
TTITLE12=Stone Free
TTITLE13=Purple Haze
TTITLE14=51st Anniversary
TTITLE15=The Wind Cries Mary
TTITLE16=Highway Chile
EXTD=
EXTT0=
EXTT1=
EXTT2=
EXTT3=
EXTT4=
EXTT5=
EXTT6=
EXTT7=
EXTT8=
EXTT9=
EXTT10=
EXTT11=
EXTT12=
EXTT13=
EXTT14=
EXTT15=
EXTT16=
PLAYORDER=
